<svg xmlns="http://www.w3.org/2000/svg" width="16" height="14" viewBox="0 0 16 14" fill="none">
  <path d="M 8 10 C 7.717 10 7.479 9.904 7.288 9.712 C 7.096 9.521 7 9.283 7 9 L 7 3.425 L 5.125 5.3 C 4.925 5.5 4.692 5.6 4.425 5.6 C 4.158 5.6 3.917 5.492 3.7 5.275 C 3.5 5.075 3.404 4.837 3.413 4.562 C 3.421 4.287 3.517 4.058 3.7 3.875 L 7.3 0.275 C 7.4 0.175 7.508 0.104 7.625 0.062 C 7.742 0.021 7.867 0 8 0 C 8.133 0 8.258 0.021 8.375 0.062 C 8.492 0.104 8.6 0.175 8.7 0.275 L 12.3 3.875 C 12.5 4.075 12.596 4.312 12.587 4.587 C 12.579 4.862 12.483 5.092 12.3 5.275 C 12.1 5.475 11.863 5.579 11.588 5.587 C 11.313 5.596 11.075 5.5 10.875 5.3 L 9 3.425 L 9 9 C 9 9.283 8.904 9.521 8.713 9.712 C 8.521 9.904 8.283 10 8 10 Z M 2 14 C 1.45 14 0.979 13.804 0.588 13.413 C 0.196 13.021 0 12.55 0 12 L 0 10 C 0 9.717 0.096 9.479 0.287 9.287 C 0.479 9.096 0.717 9 1 9 C 1.283 9 1.521 9.096 1.713 9.287 C 1.904 9.479 2 9.717 2 10 L 2 12 L 14 12 L 14 10 C 14 9.717 14.096 9.479 14.288 9.287 C 14.479 9.096 14.717 9 15 9 C 15.283 9 15.521 9.096 15.712 9.287 C 15.904 9.479 16 9.717 16 10 L 16 12 C 16 12.55 15.804 13.021 15.413 13.413 C 15.021 13.804 14.55 14 14 14 L 2 14 Z" fill="currentColor" fill-rule="nonzero"></path>
</svg>