<svg xmlns="http://www.w3.org/2000/svg" width="14" height="14" viewBox="0 0 14 14" fill="none">
  <path d="M 12.833 0 C 13.931 0 14 0.586 14 1.313 L 14 12.688 C 14 13.414 13.931 14 12.833 14 C 11.736 14 11.667 13.414 11.667 12.688 L 11.667 1.313 C 11.667 0.586 11.736 0 12.833 0 Z M 1.167 8.75 C 2.264 8.75 2.333 9.336 2.333 10.063 L 2.333 12.688 C 2.333 13.414 2.264 14 1.167 14 C 0.069 14 0 13.414 0 12.688 L 0 10.063 C 0 9.336 0.069 8.75 1.167 8.75 Z M 7 4.278 C 8.097 4.278 8.167 4.961 8.167 5.688 L 8.167 12.688 C 8.167 13.414 8.097 14 7 14 C 5.903 14 5.833 13.414 5.833 12.688 L 5.833 5.688 C 5.833 4.961 5.903 4.278 7 4.278 Z" fill="currentColor" fill-rule="nonzero"></path>
</svg>