<svg xmlns="http://www.w3.org/2000/svg" width="16" height="14" viewBox="0 0 16 14" fill="none">
  <path d="M 8 10 C 7.867 10 7.742 9.979 7.625 9.937 C 7.508 9.896 7.4 9.825 7.3 9.725 L 3.7 6.05 C 3.517 5.867 3.425 5.633 3.425 5.35 C 3.425 5.067 3.517 4.833 3.7 4.65 C 3.883 4.467 4.121 4.371 4.412 4.362 C 4.704 4.354 4.942 4.442 5.125 4.625 L 7 6.5 L 7 1 C 7 0.717 7.096 0.479 7.288 0.287 C 7.479 0.096 7.717 0 8 0 C 8.283 0 8.521 0.096 8.713 0.287 C 8.904 0.479 9 0.717 9 1 L 9 6.5 L 10.875 4.625 C 11.058 4.442 11.296 4.354 11.588 4.362 C 11.879 4.371 12.117 4.467 12.3 4.65 C 12.483 4.833 12.575 5.067 12.575 5.35 C 12.575 5.633 12.483 5.867 12.3 6.05 L 8.7 9.725 C 8.6 9.825 8.492 9.896 8.375 9.937 C 8.258 9.979 8.133 10 8 10 Z M 2 14 C 1.45 14 0.979 13.804 0.588 13.413 C 0.196 13.021 0 12.55 0 12 L 0 10 C 0 9.717 0.096 9.479 0.287 9.287 C 0.479 9.096 0.717 9 1 9 C 1.283 9 1.521 9.096 1.713 9.287 C 1.904 9.479 2 9.717 2 10 L 2 12 L 14 12 L 14 10 C 14 9.717 14.096 9.479 14.288 9.287 C 14.479 9.096 14.717 9 15 9 C 15.283 9 15.521 9.096 15.712 9.287 C 15.904 9.479 16 9.717 16 10 L 16 12 C 16 12.55 15.804 13.021 15.413 13.413 C 15.021 13.804 14.55 14 14 14 L 2 14 Z" fill="currentColor" fill-rule="nonzero"></path>
</svg>