<svg xmlns="http://www.w3.org/2000/svg" width="52.500" height="55.417" viewBox="0 0 52.500 55.417" fill="none">
  <path d="M 26.25 29.167 C 25.424 29.167 24.731 28.887 24.173 28.327 C 23.615 27.767 23.335 27.074 23.333 26.25 L 23.333 2.917 C 23.333 2.09 23.613 1.398 24.173 0.84 C 24.733 0.282 25.426 0.002 26.25 0 C 27.074 -0.002 27.768 0.278 28.33 0.84 C 28.892 1.402 29.171 2.094 29.167 2.917 L 29.167 26.25 C 29.167 27.076 28.887 27.77 28.327 28.33 C 27.767 28.89 27.074 29.169 26.25 29.167 Z M 26.25 55.417 C 22.604 55.417 19.19 54.724 16.007 53.34 C 12.824 51.956 10.053 50.084 7.694 47.725 C 5.336 45.367 3.464 42.596 2.08 39.413 C 0.695 36.23 0.002 32.814 0 29.167 C 0 26.201 0.486 23.321 1.458 20.525 C 2.431 17.728 3.84 15.165 5.687 12.833 C 6.222 12.153 6.903 11.825 7.729 11.85 C 8.556 11.876 9.285 12.203 9.917 12.833 C 10.451 13.368 10.694 14.024 10.646 14.802 C 10.597 15.58 10.33 16.309 9.844 16.99 C 8.531 18.74 7.535 20.66 6.854 22.75 C 6.174 24.84 5.833 26.979 5.833 29.167 C 5.833 34.854 7.815 39.679 11.778 43.642 C 15.74 47.605 20.564 49.585 26.25 49.583 C 31.936 49.581 36.761 47.601 40.725 43.642 C 44.69 39.683 46.671 34.858 46.667 29.167 C 46.667 26.931 46.339 24.755 45.684 22.639 C 45.028 20.524 43.995 18.592 42.583 16.844 C 42.097 16.212 41.83 15.52 41.781 14.767 C 41.733 14.015 41.976 13.37 42.51 12.833 C 43.094 12.25 43.799 11.947 44.625 11.923 C 45.451 11.9 46.132 12.203 46.667 12.833 C 48.563 15.167 50.009 17.719 51.007 20.49 C 52.004 23.26 52.502 26.153 52.5 29.167 C 52.5 32.813 51.808 36.228 50.423 39.413 C 49.039 42.598 47.167 45.369 44.809 47.725 C 42.45 50.082 39.679 51.954 36.496 53.34 C 33.313 54.726 29.898 55.419 26.25 55.417 Z" fill="currentColor" fill-rule="nonzero"></path>
</svg>