<svg width="28" height="26" viewBox="0 0 28 26" fill="none" xmlns="http://www.w3.org/2000/svg">
<path d="M25.4278 9.20268C26.476 11.0557 27 11.9821 27 13C27 14.0179 26.476 14.9443 25.4278 16.7973L22.927 21.2184C21.8829 23.064 21.361 23.9869 20.5025 24.4935C19.6441 25 18.6023 25 16.5185 25H11.4815C9.39777 25 8.35592 25 7.49749 24.4935C6.63906 23.9869 6.11705 23.064 5.07304 21.2184L2.57225 16.7973C1.52408 14.9443 1 14.0179 1 13C1 11.9821 1.52408 11.0557 2.57225 9.20267L5.07304 4.78161C6.11705 2.93595 6.63906 2.01312 7.49749 1.50656C8.35592 1 9.39777 1 11.4815 1H16.5185C18.6023 1 19.6441 1 20.5025 1.50656C21.361 2.01312 21.8829 2.93596 22.927 4.78163L25.4278 9.20268Z" stroke="#B6B6B6" stroke-width="1.8"></path>
<circle cx="14" cy="13" r="4.1" stroke="#B6B6B6" stroke-width="1.8"></circle>
</svg>