<svg width="26" height="26" viewBox="0 0 26 26" fill="none" xmlns="http://www.w3.org/2000/svg">
<path d="M6.45131 4.31492L5.11796 5.25158C3.09575 6.67217 2.08464 7.38248 1.54232 8.384C1 9.3855 1 10.5425 1 12.8564V15.3658C1 19.9074 1 22.1782 2.56209 23.5892C4.1242 25 6.63835 25 11.6667 25H14.3333C19.3616 25 21.8759 25 23.4379 23.5892C25 22.1782 25 19.9074 25 15.3658V12.8564C25 10.5425 25 9.3855 24.4577 8.384C23.9153 7.38248 22.9043 6.67217 20.882 5.25158L19.5487 4.31492C16.4028 2.10497 14.8299 1 13 1C11.1701 1 9.59716 2.10497 6.45131 4.31492Z" stroke="#B6B6B6" stroke-width="1.7" stroke-linejoin="round"></path>
<circle cx="13" cy="15" r="4.1" stroke="#B6B6B6" stroke-width="1.8"></circle>
</svg>