<svg width="44" height="44" viewBox="0 0 44 44" fill="none" xmlns="http://www.w3.org/2000/svg">
<path d="M12.7227 9.69613L10.8338 11.0231C7.96897 13.0356 6.53657 14.0418 5.76829 15.4607C5 16.8795 5 18.5185 5 21.7965V25.3516C5 31.7855 5 35.0025 7.21297 37.0013C9.42595 39 12.9877 39 20.1111 39H23.8889C31.0123 39 34.5741 39 36.787 37.0013C39 35.0025 39 31.7855 39 25.3516V21.7965C39 18.5185 39 16.8795 38.2318 15.4607C37.4634 14.0418 36.031 13.0356 33.1662 11.0231L31.2773 9.69613C26.8206 6.56538 24.5923 5 22 5C19.4077 5 17.1793 6.56538 12.7227 9.69613Z" stroke="url(#paint0_linear_933_12713)" stroke-width="1.7" stroke-linejoin="round"></path>
<circle cx="22" cy="25" r="6.1" stroke="url(#paint1_linear_933_12713)" stroke-width="1.8"></circle>
<defs>
<linearGradient id="paint0_linear_933_12713" x1="22" y1="5" x2="22" y2="39" gradientUnits="userSpaceOnUse">
<stop stop-color="#00C6FB"></stop>
<stop offset="1" stop-color="#005BEA"></stop>
</linearGradient>
<linearGradient id="paint1_linear_933_12713" x1="22" y1="18" x2="22" y2="32" gradientUnits="userSpaceOnUse">
<stop stop-color="#00C6FB"></stop>
<stop offset="1" stop-color="#005BEA"></stop>
</linearGradient>
</defs>
</svg>